<mxfile host="app.diagrams.net" agent="Mozilla/5.0 (Windows NT 10.0; Win64; x64) AppleWebKit/537.36 (KHTML, like Gecko) Chrome/122.0.0.0 Safari/537.36 Edg/122.0.0.0" version="25.0.3">
  <diagram name="第 1 页" id="Knm-lP41OONlfiwNGnnD">
    <mxGraphModel dx="1036" dy="458" grid="1" gridSize="10" guides="1" tooltips="1" connect="1" arrows="1" fold="1" page="1" pageScale="1" pageWidth="827" pageHeight="1169" math="0" shadow="0">
      <root>
        <mxCell id="0" />
        <mxCell id="1" parent="0" />
        <mxCell id="qZviWjtYEAZgcSV_L7dp-56" value="" style="rounded=1;whiteSpace=wrap;html=1;dashed=1;" parent="1" vertex="1">
          <mxGeometry x="100" y="170" width="650" height="490" as="geometry" />
        </mxCell>
        <mxCell id="qZviWjtYEAZgcSV_L7dp-3" value="" style="rounded=0;whiteSpace=wrap;html=1;fillColor=#7EA6E0;" parent="1" vertex="1">
          <mxGeometry x="130" y="190" width="400" height="74.38" as="geometry" />
        </mxCell>
        <mxCell id="qZviWjtYEAZgcSV_L7dp-5" value="" style="html=1;shadow=0;dashed=0;align=center;verticalAlign=middle;shape=mxgraph.arrows2.arrow;dy=0.66;dx=22.88;notch=0;fillColor=#CCCCCC;" parent="1" vertex="1">
          <mxGeometry x="296" y="216.31" width="80" height="38.13" as="geometry" />
        </mxCell>
        <mxCell id="qZviWjtYEAZgcSV_L7dp-8" value="Camera" style="rounded=1;whiteSpace=wrap;html=1;fillColor=#B9E0A5;" parent="1" vertex="1">
          <mxGeometry x="160" y="211.75" width="130" height="41.25" as="geometry" />
        </mxCell>
        <mxCell id="qZviWjtYEAZgcSV_L7dp-9" value="JpgMsg encoder" style="rounded=1;whiteSpace=wrap;html=1;fillColor=#B9E0A5;" parent="1" vertex="1">
          <mxGeometry x="380" y="212.75" width="130" height="41.25" as="geometry" />
        </mxCell>
        <mxCell id="qZviWjtYEAZgcSV_L7dp-11" value="" style="rounded=0;whiteSpace=wrap;html=1;fillColor=#A9C4EB;" parent="1" vertex="1">
          <mxGeometry x="130" y="274" width="400" height="366" as="geometry" />
        </mxCell>
        <mxCell id="qZviWjtYEAZgcSV_L7dp-10" value="" style="html=1;shadow=0;dashed=0;align=center;verticalAlign=middle;shape=mxgraph.arrows2.arrow;dy=0.6;dx=19.33;direction=south;notch=0;fillColor=#CCCCCC;" parent="1" vertex="1">
          <mxGeometry x="440" y="245" width="30" height="60" as="geometry" />
        </mxCell>
        <mxCell id="qZviWjtYEAZgcSV_L7dp-12" value="JpgMsg decoder" style="rounded=1;whiteSpace=wrap;html=1;fillColor=#FFD89E;" parent="1" vertex="1">
          <mxGeometry x="390" y="309" width="120" height="51" as="geometry" />
        </mxCell>
        <mxCell id="qZviWjtYEAZgcSV_L7dp-22" value="" style="rounded=0;whiteSpace=wrap;html=1;fillColor=#E6D1D3;" parent="1" vertex="1">
          <mxGeometry x="245" y="290" width="120" height="338" as="geometry" />
        </mxCell>
        <mxCell id="qZviWjtYEAZgcSV_L7dp-60" style="edgeStyle=orthogonalEdgeStyle;rounded=0;orthogonalLoop=1;jettySize=auto;html=1;exitX=0;exitY=0.5;exitDx=0;exitDy=0;entryX=0.5;entryY=0;entryDx=0;entryDy=0;shape=flexArrow;fillColor=#CCCCCC;width=11.304347826086957;endSize=4.834782608695652;" parent="1" source="qZviWjtYEAZgcSV_L7dp-14" target="qZviWjtYEAZgcSV_L7dp-19" edge="1">
          <mxGeometry relative="1" as="geometry" />
        </mxCell>
        <mxCell id="o7PN1KQM0Z8fIxWU293y-7" value="Generate 2DPose" style="edgeLabel;html=1;align=center;verticalAlign=middle;resizable=0;points=[];" parent="qZviWjtYEAZgcSV_L7dp-60" vertex="1" connectable="0">
          <mxGeometry x="-0.4441" y="5" relative="1" as="geometry">
            <mxPoint x="-25" y="-20" as="offset" />
          </mxGeometry>
        </mxCell>
        <mxCell id="qZviWjtYEAZgcSV_L7dp-14" value="YOLO11-Pose" style="rounded=1;whiteSpace=wrap;html=1;fillColor=#FFD89E;" parent="1" vertex="1">
          <mxGeometry x="260" y="322" width="90" height="45" as="geometry" />
        </mxCell>
        <mxCell id="qZviWjtYEAZgcSV_L7dp-13" value="" style="html=1;shadow=0;dashed=0;align=center;verticalAlign=middle;shape=mxgraph.arrows2.arrow;dy=0.54;dx=19.25;flipH=1;notch=0;fillColor=#CCCCCC;" parent="1" vertex="1">
          <mxGeometry x="350" y="329.5" width="50" height="30" as="geometry" />
        </mxCell>
        <mxCell id="qZviWjtYEAZgcSV_L7dp-16" value="" style="rounded=0;whiteSpace=wrap;html=1;fillColor=#FFE599;" parent="1" vertex="1">
          <mxGeometry x="384" y="367" width="130" height="207" as="geometry" />
        </mxCell>
        <mxCell id="qZviWjtYEAZgcSV_L7dp-17" value="&lt;font style=&quot;font-size: 14px;&quot;&gt;Integrated data unit&lt;/font&gt;" style="rounded=1;whiteSpace=wrap;html=1;fillColor=#FFD89E;" parent="1" vertex="1">
          <mxGeometry x="260" y="380" width="90" height="234" as="geometry" />
        </mxCell>
        <mxCell id="qZviWjtYEAZgcSV_L7dp-18" value="PoseMsg encoder" style="rounded=1;whiteSpace=wrap;html=1;fillColor=#FFD89E;" parent="1" vertex="1">
          <mxGeometry x="388" y="585" width="125" height="40" as="geometry" />
        </mxCell>
        <mxCell id="qZviWjtYEAZgcSV_L7dp-19" value="&lt;font style=&quot;font-size: 14px;&quot;&gt;Transfomer&lt;/font&gt;" style="rounded=1;whiteSpace=wrap;html=1;fillColor=#FFD89E;" parent="1" vertex="1">
          <mxGeometry x="140" y="408" width="90" height="161" as="geometry" />
        </mxCell>
        <mxCell id="qZviWjtYEAZgcSV_L7dp-23" value="&lt;span style=&quot;font-size: 14px;&quot;&gt;&lt;b&gt;Inference&amp;nbsp;&lt;/b&gt;&lt;/span&gt;&lt;div&gt;&lt;span style=&quot;font-size: 14px;&quot;&gt;&lt;b&gt;manager&lt;/b&gt;&lt;/span&gt;&lt;/div&gt;" style="text;html=1;align=center;verticalAlign=middle;whiteSpace=wrap;rounded=0;" parent="1" vertex="1">
          <mxGeometry x="235" y="290.5" width="140" height="30" as="geometry" />
        </mxCell>
        <mxCell id="qZviWjtYEAZgcSV_L7dp-27" value="" style="rounded=0;whiteSpace=wrap;html=1;fillColor=#CDA2BE;" parent="1" vertex="1">
          <mxGeometry x="394.5" y="392" width="105" height="50" as="geometry" />
        </mxCell>
        <mxCell id="qZviWjtYEAZgcSV_L7dp-28" value="3DcrowdNet " style="rounded=1;whiteSpace=wrap;fillColor=#E6D0DE;" parent="1" vertex="1">
          <mxGeometry x="409" y="409.5" width="78" height="27" as="geometry" />
        </mxCell>
        <mxCell id="qZviWjtYEAZgcSV_L7dp-29" value="" style="rounded=0;whiteSpace=wrap;html=1;fillColor=#CDA2BE;" parent="1" vertex="1">
          <mxGeometry x="394.5" y="455" width="105.5" height="110" as="geometry" />
        </mxCell>
        <mxCell id="qZviWjtYEAZgcSV_L7dp-30" value="&lt;b&gt;CPU&lt;/b&gt;" style="text;html=1;align=center;verticalAlign=middle;whiteSpace=wrap;rounded=0;" parent="1" vertex="1">
          <mxGeometry x="417.25" y="387" width="60" height="30" as="geometry" />
        </mxCell>
        <mxCell id="qZviWjtYEAZgcSV_L7dp-32" value="3DcrowdNet " style="rounded=1;whiteSpace=wrap;fillColor=#E6D0DE;" parent="1" vertex="1">
          <mxGeometry x="409.25" y="481" width="78" height="27" as="geometry" />
        </mxCell>
        <mxCell id="qZviWjtYEAZgcSV_L7dp-33" value="&lt;b&gt;GPU&lt;/b&gt;" style="text;html=1;align=center;verticalAlign=middle;whiteSpace=wrap;rounded=0;" parent="1" vertex="1">
          <mxGeometry x="417" y="453" width="60" height="30" as="geometry" />
        </mxCell>
        <mxCell id="qZviWjtYEAZgcSV_L7dp-34" value="3DcrowdNet " style="rounded=1;whiteSpace=wrap;fillColor=#E6D0DE;" parent="1" vertex="1">
          <mxGeometry x="410.25" y="523" width="78" height="27" as="geometry" />
        </mxCell>
        <mxCell id="qZviWjtYEAZgcSV_L7dp-35" value="&lt;span style=&quot;font-size: 14px;&quot;&gt;&lt;b&gt;Task scheduler&lt;/b&gt;&lt;/span&gt;" style="text;html=1;align=center;verticalAlign=middle;whiteSpace=wrap;rounded=0;" parent="1" vertex="1">
          <mxGeometry x="389.63" y="367" width="121.75" height="30" as="geometry" />
        </mxCell>
        <mxCell id="qZviWjtYEAZgcSV_L7dp-42" value="" style="rounded=0;whiteSpace=wrap;html=1;fillColor=#67AB9F;" parent="1" vertex="1">
          <mxGeometry x="543" y="190" width="177" height="450" as="geometry" />
        </mxCell>
        <mxCell id="qZviWjtYEAZgcSV_L7dp-41" value="" style="html=1;shadow=0;dashed=0;align=center;verticalAlign=middle;shape=mxgraph.arrows2.arrow;dy=0.66;dx=22.88;notch=0;fillColor=#CCCCCC;" parent="1" vertex="1">
          <mxGeometry x="503.5" y="587" width="70.5" height="33" as="geometry" />
        </mxCell>
        <mxCell id="qZviWjtYEAZgcSV_L7dp-43" value="PoseMsg decoder" style="rounded=1;whiteSpace=wrap;html=1;fillColor=#FFF4C3;" parent="1" vertex="1">
          <mxGeometry x="573" y="570" width="120" height="57" as="geometry" />
        </mxCell>
        <mxCell id="qZviWjtYEAZgcSV_L7dp-47" value="Joint optimizer" style="rounded=1;whiteSpace=wrap;html=1;fillColor=#FFF4C3;" parent="1" vertex="1">
          <mxGeometry x="570" y="455" width="120" height="60" as="geometry" />
        </mxCell>
        <mxCell id="qZviWjtYEAZgcSV_L7dp-48" value="Control avatar posture" style="rounded=1;whiteSpace=wrap;html=1;fillColor=#FFF4C3;" parent="1" vertex="1">
          <mxGeometry x="570" y="339" width="120" height="60" as="geometry" />
        </mxCell>
        <mxCell id="qZviWjtYEAZgcSV_L7dp-51" value="VR scenes and users" style="rounded=1;whiteSpace=wrap;html=1;fillColor=#FFCCCC;" parent="1" vertex="1">
          <mxGeometry x="570" y="246" width="120" height="50" as="geometry" />
        </mxCell>
        <mxCell id="qZviWjtYEAZgcSV_L7dp-52" value="" style="html=1;shadow=0;dashed=0;align=center;verticalAlign=middle;shape=mxgraph.arrows2.arrow;dy=0.58;dx=20.54;direction=north;notch=0;fillColor=#CCCCCC;" parent="1" vertex="1">
          <mxGeometry x="615.5" y="516" width="29" height="54" as="geometry" />
        </mxCell>
        <mxCell id="qZviWjtYEAZgcSV_L7dp-53" value="" style="html=1;shadow=0;dashed=0;align=center;verticalAlign=middle;shape=mxgraph.arrows2.arrow;dy=0.58;dx=20.54;direction=north;notch=0;fillColor=#CCCCCC;" parent="1" vertex="1">
          <mxGeometry x="613.5" y="400" width="33" height="55" as="geometry" />
        </mxCell>
        <mxCell id="qZviWjtYEAZgcSV_L7dp-55" value="&lt;span style=&quot;font-size: 14px;&quot;&gt;&lt;b&gt;VR client&lt;/b&gt;&lt;/span&gt;" style="text;html=1;align=center;verticalAlign=middle;whiteSpace=wrap;rounded=0;" parent="1" vertex="1">
          <mxGeometry x="570" y="200.75" width="120" height="41.25" as="geometry" />
        </mxCell>
        <mxCell id="qZviWjtYEAZgcSV_L7dp-57" value="&lt;span style=&quot;font-size: 14px;&quot;&gt;&lt;b&gt;Camera client&lt;/b&gt;&lt;/span&gt;" style="text;html=1;align=center;verticalAlign=middle;whiteSpace=wrap;rounded=0;" parent="1" vertex="1">
          <mxGeometry x="288" y="190" width="94" height="30" as="geometry" />
        </mxCell>
        <mxCell id="qZviWjtYEAZgcSV_L7dp-58" value="" style="html=1;shadow=0;dashed=0;align=center;verticalAlign=middle;shape=mxgraph.arrows2.arrow;dy=0.66;dx=22.88;notch=0;fillColor=#CCCCCC;" parent="1" vertex="1">
          <mxGeometry x="339" y="591.5" width="55" height="26" as="geometry" />
        </mxCell>
        <mxCell id="rqnmy9McXEW3Z_b_oBwS-1" value="server-side" style="text;align=center;verticalAlign=middle;resizable=0;points=[];autosize=1;strokeColor=none;fillColor=none;horizontal=1;fontStyle=1;fontSize=16;" parent="1" vertex="1">
          <mxGeometry x="135" y="285" width="100" height="30" as="geometry" />
        </mxCell>
        <mxCell id="9eQYjSnBoUs20xjZKoyD-1" value="" style="html=1;shadow=0;dashed=0;align=center;verticalAlign=middle;shape=mxgraph.arrows2.arrow;dy=0.56;dx=14.56;flipH=1;notch=0;fillColor=#CCCCCC;" parent="1" vertex="1">
          <mxGeometry x="340" y="520" width="44" height="30" as="geometry" />
        </mxCell>
        <mxCell id="9eQYjSnBoUs20xjZKoyD-4" value="" style="html=1;shadow=0;dashed=0;align=center;verticalAlign=middle;shape=mxgraph.arrows2.arrow;dy=0.61;dx=17.18;notch=0;fillColor=#CCCCCC;" parent="1" vertex="1">
          <mxGeometry x="340" y="399" width="50.5" height="26" as="geometry" />
        </mxCell>
        <mxCell id="9eQYjSnBoUs20xjZKoyD-5" value="" style="html=1;shadow=0;dashed=0;align=center;verticalAlign=middle;shape=mxgraph.arrows2.arrow;dy=0.67;dx=19.52;notch=0;fillColor=#CCCCCC;" parent="1" vertex="1">
          <mxGeometry x="210" y="417" width="47" height="26" as="geometry" />
        </mxCell>
        <mxCell id="o7PN1KQM0Z8fIxWU293y-2" value="coding" style="text;html=1;align=center;verticalAlign=middle;resizable=0;points=[];autosize=1;strokeColor=none;fillColor=none;" parent="1" vertex="1">
          <mxGeometry x="298" y="236.38" width="60" height="30" as="geometry" />
        </mxCell>
        <mxCell id="o7PN1KQM0Z8fIxWU293y-3" value="TCP&amp;nbsp;&lt;div&gt;transfer&lt;/div&gt;" style="text;html=1;align=center;verticalAlign=middle;resizable=0;points=[];autosize=1;strokeColor=none;fillColor=none;" parent="1" vertex="1">
          <mxGeometry x="468" y="270" width="60" height="40" as="geometry" />
        </mxCell>
        <mxCell id="o7PN1KQM0Z8fIxWU293y-4" value="decode" style="text;html=1;align=center;verticalAlign=middle;resizable=0;points=[];autosize=1;strokeColor=none;fillColor=none;" parent="1" vertex="1">
          <mxGeometry x="365" y="286.5" width="60" height="30" as="geometry" />
        </mxCell>
        <mxCell id="o7PN1KQM0Z8fIxWU293y-8" value="Regression&amp;nbsp;&lt;div&gt;offset&lt;/div&gt;" style="text;html=1;align=center;verticalAlign=middle;resizable=0;points=[];autosize=1;strokeColor=none;fillColor=none;" parent="1" vertex="1">
          <mxGeometry x="188.5" y="439" width="90" height="40" as="geometry" />
        </mxCell>
        <mxCell id="o7PN1KQM0Z8fIxWU293y-9" value="Package as task" style="text;html=1;align=center;verticalAlign=middle;resizable=0;points=[];autosize=1;strokeColor=none;fillColor=none;" parent="1" vertex="1">
          <mxGeometry x="305" y="417" width="110" height="30" as="geometry" />
        </mxCell>
        <mxCell id="o7PN1KQM0Z8fIxWU293y-10" value="integrated data" style="text;html=1;align=center;verticalAlign=middle;resizable=0;points=[];autosize=1;strokeColor=none;fillColor=none;" parent="1" vertex="1">
          <mxGeometry x="290.5" y="540" width="100" height="30" as="geometry" />
        </mxCell>
        <mxCell id="o7PN1KQM0Z8fIxWU293y-11" value="coding" style="text;html=1;align=center;verticalAlign=middle;resizable=0;points=[];autosize=1;strokeColor=none;fillColor=none;" parent="1" vertex="1">
          <mxGeometry x="310.5" y="574" width="60" height="30" as="geometry" />
        </mxCell>
        <mxCell id="o7PN1KQM0Z8fIxWU293y-12" value="&lt;font style=&quot;font-size: 11px;&quot;&gt;Reliable UDP&amp;nbsp;&lt;/font&gt;&lt;div&gt;&lt;font style=&quot;font-size: 11px;&quot;&gt;transmission&lt;/font&gt;&lt;/div&gt;" style="text;html=1;align=center;verticalAlign=middle;resizable=0;points=[];autosize=1;strokeColor=none;fillColor=none;" parent="1" vertex="1">
          <mxGeometry x="493.75" y="547" width="90" height="40" as="geometry" />
        </mxCell>
        <mxCell id="o7PN1KQM0Z8fIxWU293y-13" value="decode" style="text;html=1;align=center;verticalAlign=middle;resizable=0;points=[];autosize=1;strokeColor=none;fillColor=none;" parent="1" vertex="1">
          <mxGeometry x="633" y="539" width="60" height="30" as="geometry" />
        </mxCell>
        <mxCell id="o7PN1KQM0Z8fIxWU293y-14" value="&lt;div&gt;&lt;span style=&quot;font-size: 10px;&quot;&gt;IK attitude data&lt;/span&gt;&lt;/div&gt;&lt;div&gt;&lt;span style=&quot;font-size: 10px;&quot;&gt;IK and smooth attitude data&lt;/span&gt;&lt;/div&gt;" style="text;html=1;align=center;verticalAlign=middle;resizable=0;points=[];autosize=1;strokeColor=none;fillColor=none;" parent="1" vertex="1">
          <mxGeometry x="555" y="417" width="150" height="40" as="geometry" />
        </mxCell>
        <mxCell id="78EndixJUYksl0SYltFk-1" value="" style="html=1;shadow=0;dashed=0;align=center;verticalAlign=middle;shape=mxgraph.arrows2.arrow;dy=0.48;dx=17.33;direction=south;notch=0;fillColor=#CCCCCC;" vertex="1" parent="1">
          <mxGeometry x="643.5" y="296" width="20" height="44" as="geometry" />
        </mxCell>
        <mxCell id="78EndixJUYksl0SYltFk-2" value="" style="html=1;shadow=0;dashed=0;align=center;verticalAlign=middle;shape=mxgraph.arrows2.arrow;dy=0.45;dx=14.42;direction=north;notch=0;fillColor=#CCCCCC;" vertex="1" parent="1">
          <mxGeometry x="600" y="296" width="20" height="44" as="geometry" />
        </mxCell>
        <mxCell id="78EndixJUYksl0SYltFk-3" value="interaction" style="text;html=1;align=center;verticalAlign=middle;whiteSpace=wrap;rounded=0;" vertex="1" parent="1">
          <mxGeometry x="660" y="299.5" width="60" height="30" as="geometry" />
        </mxCell>
      </root>
    </mxGraphModel>
  </diagram>
</mxfile>
